# xmcd
#
# Track frame offsets: 
#        150
#        10800
#        23925
#        40500
#        58500
#        76350
#        95550
#        109050
#        120375
#        129675
#        140700
#        151575
#        169200
#        179400
#        196350
#        209250
#        221700
#        233175
#        244350
#        256200
#        268350
#
# Disc length: 3761 seconds
#
# Revision: 0
# Processed by: cddbd v1.5.2PL0 Copyright (c) Steve Scherf et al.
# Submitted via: ExactAudioCopy v1.0b1
#
DISCID=2d0eaf15
DTITLE=鄧麗君 - 鄧麗君懷念精選專輯CD7
DYEAR=1900
DGENRE=
TTITLE0=世事多變化
TTITLE1=世界多美麗
TTITLE2=情人的黃襯衫
TTITLE3=落葉思情
TTITLE4=誰人禁止我的愛
TTITLE5=何處是我歸程
TTITLE6=提起愛情多煩惱
TTITLE7=別在星期天
TTITLE8=媽媽什麼叫戀愛
TTITLE9=慈母淚
TTITLE10=靜心等
TTITLE11=愛情甜如蜜
TTITLE12=我的心裡有一個人
TTITLE13=再會吧!校園
TTITLE14=歌唱今天
TTITLE15=美夢中的情人
TTITLE16=暢飲一杯
TTITLE17=盼望
TTITLE18=你是我的陽光
TTITLE19=語的旋律
TTITLE20=可愛的明天
EXTD=
EXTT0=
EXTT1=
EXTT2=
EXTT3=
EXTT4=
EXTT5=
EXTT6=
EXTT7=
EXTT8=
EXTT9=
EXTT10=
EXTT11=
EXTT12=
EXTT13=
EXTT14=
EXTT15=
EXTT16=
EXTT17=
EXTT18=
EXTT19=
EXTT20=
PLAYORDER=
